<svg width="1440" height="320" viewBox="0 0 1440 320" fill="none" xmlns="http://www.w3.org/2000/svg">
<path d="M1053.56 320L976.629 272.844L955.935 259.973C942.644 251.705 939.431 242.973 946.857 235.383C955.19 226.883 976.093 220.913 1004.24 218.99L1622.53 176.833C1637.71 175.821 1648.13 173.089 1651.07 169.396C1654 165.702 1649.67 160.491 1638.87 155.391C1613.64 143.48 1563.2 135.628 1526.42 137.895L18.8808 230.799C-41.9662 234.553 -106.282 223.189 -124.531 205.501L-124.95 205.076C-128.563 201.736 -130.282 198.068 -129.962 194.379C-129.642 190.69 -127.293 187.089 -123.111 183.876C-110.495 174.121 -81.6076 167.109 -45.8303 165.125L1064.5 103.479C1082.77 102.467 1095.97 99.3808 1099.81 95.2117C1102.75 92.014 1100.14 88.0068 1092.48 83.9085C1071.62 72.8584 1023.3 65.3701 984.682 67.2928L348.163 99.057C295.533 101.678 236.92 91.9027 217.483 77.2703L217.018 76.9162C208.801 70.7333 208.01 64.1659 214.69 58.398C224.536 50.0395 248.535 44.4132 280.588 42.9864L522.045 32.2095C543.483 31.2481 559.801 27.8177 564.619 23.2438C567.412 20.5926 566.179 17.6074 560.941 14.349L546.253 5.24175L563.432 0L578.12 9.1073C587.617 15.0169 589.596 21.3718 583.66 27.0082C575.536 34.7292 553.865 39.9102 524.186 41.2358L282.823 52.0431C258.708 53.1259 239.783 57.1027 233.452 62.5469C229.914 65.5826 230.496 68.8512 235.151 72.3625L235.617 72.7167C251.003 84.3032 301.445 92.2265 345.765 90.0104L982.285 58.2462C1028 55.9694 1083.47 64.7124 1108.63 78.1608C1121.3 84.9407 1125.05 92.1962 1119.16 98.5915C1112.36 105.979 1093.39 111.058 1067.08 112.516L-43.2698 174.152C-72.5062 175.781 -95.5508 181.083 -104.932 188.319C-107.562 190.289 -109.032 192.512 -109.211 194.79C-109.39 197.067 -108.271 199.328 -105.956 201.372L-105.513 201.797C-91.0815 215.813 -35.5417 224.981 15.8315 221.813L1523.46 128.909C1566.99 126.227 1624.44 135.162 1654.28 149.248C1670.71 157.01 1676.6 165.237 1670.85 172.421C1665.1 179.606 1649.18 184.271 1625.79 185.86L1007.49 227.996C986.545 229.413 971.554 233.41 966.13 238.945C961.475 243.61 963.966 249.064 973.114 254.751L993.784 267.603L1070.6 314.728L1053.56 320Z" fill="white"/>
</svg>
